<svg width="128" height="128" viewBox="0 0 128 128" xmlns="http://www.w3.org/2000/svg">
  <defs>
    <linearGradient id="grad1" x1="0%" y1="0%" x2="100%" y2="100%">
      <stop offset="0%" style="stop-color:#03a9f4;stop-opacity:1" />
      <stop offset="100%" style="stop-color:#0288d1;stop-opacity:1" />
    </linearGradient>
  </defs>
  
  <!-- Background circle -->
  <circle cx="64" cy="64" r="60" fill="url(#grad1)" stroke="#01579b" stroke-width="2"/>
  
  <!-- Robot head -->
  <rect x="32" y="28" width="64" height="48" rx="8" fill="#ffffff" opacity="0.9"/>
  
  <!-- Eyes -->
  <circle cx="48" cy="44" r="6" fill="#03a9f4"/>
  <circle cx="80" cy="44" r="6" fill="#03a9f4"/>
  
  <!-- Antenna -->
  <line x1="64" y1="28" x2="64" y2="18" stroke="#ffffff" stroke-width="3" stroke-linecap="round"/>
  <circle cx="64" cy="18" r="3" fill="#ff5722"/>
  
  <!-- Body -->
  <rect x="36" y="76" width="56" height="32" rx="4" fill="#ffffff" opacity="0.8"/>
  
  <!-- Config/code lines -->
  <line x1="44" y1="84" x2="84" y2="84" stroke="#03a9f4" stroke-width="2"/>
  <line x1="44" y1="92" x2="76" y2="92" stroke="#03a9f4" stroke-width="2"/>
  <line x1="44" y1="100" x2="80" y2="100" stroke="#03a9f4" stroke-width="2"/>
  
  <!-- AI spark/magic effect -->
  <g fill="#ffeb3b" opacity="0.8">
    <polygon points="20,50 24,58 16,58"/>
    <polygon points="108,40 112,48 104,48"/>
    <polygon points="25,80 29,88 21,88"/>
    <polygon points="103,75 107,83 99,83"/>
  </g>
</svg>